<svg width="32" height="32" viewBox="0 0 32 32" fill="none" xmlns="http://www.w3.org/2000/svg">
<rect width="32" height="32" rx="8" fill="#181825"/>
<path d="M14 6V12.292C12.3887 12.7724 11.0041 13.8168 10.0995 15.2341C9.19485 16.6514 8.8306 18.347 9.07335 20.0108C9.3161 21.6746 10.1496 23.1954 11.4215 24.2952C12.6934 25.395 14.3186 26.0002 16 26.0002C17.6814 26.0002 19.3067 25.395 20.5785 24.2952C21.8504 23.1954 22.6839 21.6746 22.9267 20.0108C23.1694 18.347 22.8052 16.6514 21.9005 15.2341C20.9959 13.8168 19.6113 12.7724 18 12.292V6" stroke="#CDD6F4" stroke-width="2" stroke-linecap="round" stroke-linejoin="round"/>
<path d="M9 19H23" stroke="#CDD6F4" stroke-width="2" stroke-linecap="round" stroke-linejoin="round"/>
<path d="M12.5 6H19.5" stroke="#CDD6F4" stroke-width="2" stroke-linecap="round" stroke-linejoin="round"/>
</svg>
